<?xml version="1.0" encoding="utf-8"?>
<!-- Generator: Adobe Illustrator 24.0.0, SVG Export Plug-In . SVG Version: 6.00 Build 0)  -->
<svg version="1.1" id="Layer_1" xmlns="http://www.w3.org/2000/svg" xmlns:xlink="http://www.w3.org/1999/xlink" x="0px" y="0px"
	 viewBox="0 0 2090.5 557.5" style="enable-background:new 0 0 2090.5 557.5;" xml:space="preserve">
<style type="text/css">
	.st0{fill:#292A60;}
	.st1{fill:#236FB6;}
	.st2{font-family:'BradleyHandITC';}
	.st3{font-size:321.4411px;}
	.st4{fill:none;stroke:#236FB6;stroke-width:3;stroke-miterlimit:10;}
	.st5{fill:#FFFFFF;}
	.st6{fill:#292A60;stroke:#292A60;stroke-width:5;stroke-miterlimit:10;}
</style>
<g>
	<g>
		<g>
			<path class="st0" d="M222.7,208.7c0,11.1,0,21.3,0,32.3c-5,1-9.9,1.7-14.5,2.9c-31.8,8.6-53.9,28.2-62.9,60.3
				c-8.8,31.3-1.9,59.4,21.3,83.1c24.4,25.1,54.3,32.3,86.6,22.5c31.1-9.3,51.8-31.3,58.8-64.1c1.4-6.4,3.6-9.3,10.4-8.8
				c7.9,0.5,15.9,0.2,23.8,0.2c3.5,48.2-42.5,104.2-102.1,110.9c-76.2,8.6-134.3-48.2-136.7-114.9
				C104.3,257.1,170,206.1,222.7,208.7z"/>
		</g>
		<g>
			<path class="st0" d="M307.7,431.5c8.3-8.8,16.1-16.9,23.5-24.7c10.4,9.9,21.3,19.7,31.6,30.1c1.6,1.6,2.2,5.7,1.4,8.1
				c-5.5,18.5-22.3,22.8-35.4,9.2C321.4,446.5,314.3,438.7,307.7,431.5z"/>
		</g>
		<g>
			<path class="st1" d="M437.2,302.4c-39.2,0-71.2-32-71.2-71.2s32-71.2,71.2-71.2s71.2,32,71.2,71.2S476.4,302.4,437.2,302.4z
				 M437.2,185.2c-25.4,0-46,20.6-46,46s20.7,46,46,46s46-20.6,46-46S462.6,185.2,437.2,185.2z"/>
		</g>
		<g>
			<path class="st1" d="M228.4,403.5c-41.1,0-74.7-33.5-74.7-74.7s33.5-74.7,74.7-74.7s74.7,33.5,74.7,74.7S269.7,403.5,228.4,403.5
				z M228.4,279.4c-27.3,0-49.4,22.1-49.4,49.4c0,27.3,22.1,49.4,49.4,49.4s49.4-22.1,49.4-49.4
				C277.8,301.5,255.7,279.4,228.4,279.4z"/>
		</g>
		<g>
			<path class="st1" d="M243.3,156.7c-6.9,0-14.2-1.2-20.9-4c-29.7-11.6-44.4-45.3-32.8-75l0,0c5.7-14.3,16.6-25.7,30.6-32
				c14-6.2,29.9-6.6,44.2-0.9c14.3,5.7,25.7,16.6,32,30.6c6.2,14,6.6,29.9,0.9,44.2C288.4,142.7,266.4,156.7,243.3,156.7z
				 M212.8,86.9c-6.6,16.8,1.7,35.8,18.5,42.3c16.8,6.6,35.8-1.7,42.3-18.5c3.1-8.1,2.9-16.9-0.5-24.9c-3.5-7.9-9.9-14.2-18-17.3
				c-8.1-3.1-16.9-2.9-24.9,0.5C222.2,72.3,216.1,78.7,212.8,86.9L212.8,86.9z"/>
		</g>
		<g>
			<path class="st1" d="M94.5,217.2c-21.9,0-41.3-16.2-44.6-38.5l0,0c-3.6-24.5,13.7-47.5,38.2-51c24.5-3.6,47.5,13.5,51,38.2
				c3.6,24.5-13.5,47.5-38.2,51C98.6,217,96.5,217.2,94.5,217.2z M74.8,175c0.7,5.2,3.5,9.9,7.8,13c4.3,3.1,9.5,4.5,14.7,3.8
				c10.9-1.6,18.3-11.6,16.8-22.5c-1.6-10.9-11.6-18.3-22.5-16.8C80.8,154.1,73.2,164.1,74.8,175L74.8,175z"/>
		</g>
		<g>
			
				<rect x="114.7" y="116.6" transform="matrix(0.8655 -0.501 0.501 0.8655 -42.5702 99.9539)" class="st1" width="100.2" height="25.2"/>
		</g>
		<g>
			
				<rect x="186.6" y="193.7" transform="matrix(6.835458e-03 -1 1 6.835458e-03 36.7131 449.5208)" class="st1" width="116.1" height="25.2"/>
		</g>
		<g>
			
				<rect x="284.2" y="277.2" transform="matrix(0.8739 -0.4861 0.4861 0.8739 -97.8714 202.2542)" class="st1" width="113.4" height="25.2"/>
		</g>
		<g id="BLw9F5_00000047752697828340981960000000809492599993065395_">
			<g>
				<g>
					<path class="st1" d="M264.2,376.7c0,3.6,0,7.4,0,11.1c0,1-0.3,1.6-1.4,2.1c-6.9,3.3-14.2,4.7-21.8,5.5
						c-16.1,1.7-31.6-0.5-47-5.4c-1.2-0.3-1.6-0.9-1.6-2.2c0-6.6,0-13.1,0-19.7c0-14.7,10-26.3,24.7-27.3c7.8-0.7,15.9-0.5,23.7,0.2
						c11.4,1,21.3,10.7,22.6,22.1c0.5,4.5,0.3,9,0.7,13.5C264.2,376.7,264.2,376.7,264.2,376.7z"/>
				</g>
				<g>
					<path class="st1" d="M207.5,318.3c0-11.8,9.5-21.1,21.1-20.9c11.6,0,20.9,9.5,20.9,21.1c0,11.8-9.5,20.9-21.3,20.9
						C216.6,339.2,207.5,329.7,207.5,318.3z"/>
				</g>
			</g>
		</g>
		<g id="BLw9F5_00000073720581034179896800000009542661166492055726_">
			<g>
				<g>
					<path class="st1" d="M470.5,275.1c0,3.5,0,6.9,0,10.2c0,1-0.3,1.6-1.2,1.9c-6.4,2.9-13.1,4.3-20,5c-14.9,1.6-29.2-0.5-43.4-4.8
						c-1-0.3-1.4-0.9-1.4-2.1c0-6,0-12.1,0-18.3c0-13.5,9.3-24.2,22.8-25.2c7.3-0.5,14.7-0.5,21.9,0.2c10.5,0.9,19.5,9.9,20.9,20.6
						C470.7,266.8,470.5,270.9,470.5,275.1L470.5,275.1z"/>
				</g>
				<g>
					<path class="st1" d="M418.1,221.1c0-10.7,8.6-19.4,19.4-19.4c10.5,0,19.4,8.8,19.4,19.4c0,10.9-8.8,19.4-19.7,19.4
						C426.6,240.5,418.1,231.7,418.1,221.1z"/>
				</g>
			</g>
		</g>
		<g id="BLw9F5_00000066479550890690722010000009527934441352416934_">
			<g>
				<g>
					<path class="st1" d="M269.5,129.5c0.2,2.6,0.2,5.2,0.3,7.8c0,0.7-0.2,1.2-0.9,1.6c-4.8,2.4-10,3.6-15.2,4.5
						c-11.4,1.6-22.5,0.3-33.4-2.6c-0.9-0.2-1.2-0.7-1.2-1.6c-0.2-4.7-0.3-9.3-0.5-14c-0.3-10.4,6.6-18.8,16.8-20
						c5.5-0.7,11.2-0.7,16.8-0.5c8.1,0.3,15.2,7.1,16.6,15.2C269.5,123.1,269.5,126.4,269.5,129.5
						C269.7,129.5,269.7,129.5,269.5,129.5z"/>
				</g>
				<g>
					<path class="st1" d="M228,89.4c-0.3-8.3,6.2-15,14.3-15.4c8.1-0.2,15,6.2,15.4,14.3c0.3,8.3-6.2,15-14.5,15.4
						C235.1,104.1,228.2,97.6,228,89.4z"/>
				</g>
			</g>
		</g>
		<g id="BLw9F5_00000012445099384984436650000017675621459289664911_">
			<g>
				<g>
					<path class="st1" d="M108.6,187.8c0,1.4,0,2.8,0.2,4.1c0,0.3-0.2,0.7-0.5,0.9c-2.6,1.4-5.4,1.9-8.1,2.4c-6,0.9-12.1,0.2-18-1.4
						c-0.5-0.2-0.7-0.3-0.7-0.9c0-2.4-0.2-5-0.2-7.4c-0.2-5.5,3.5-10,9-10.7c2.9-0.3,6-0.3,9-0.2c4.3,0.2,8.1,3.8,8.8,8.1
						C108.6,184.3,108.6,186.1,108.6,187.8C108.8,187.8,108.6,187.8,108.6,187.8z"/>
				</g>
				<g>
					<path class="st1" d="M86.3,166.4c-0.2-4.5,3.3-8.1,7.8-8.3c4.3-0.2,8.1,3.3,8.3,7.8c0.2,4.5-3.3,8.1-7.8,8.3
						C90.1,174.1,86.5,170.7,86.3,166.4z"/>
				</g>
			</g>
		</g>
	</g>
</g>
<text transform="matrix(0.9684 0 0 1 508.3994 368.176)" class="st1 st2 st3">DIGI </text>
<text transform="matrix(0.9684 0 0 1 508.3994 368.176)" class="st4 st2 st3">DIGI </text>
<text transform="matrix(0.9684 0 0 1 1170.9644 368.176)" class="st5 st2 st3">KYAR</text>
<text transform="matrix(0.9684 0 0 1 1170.9644 368.176)" class="st6 st2 st3">KYAR</text>
</svg>
