<?xml version="1.0" encoding="utf-8"?>
<!-- Generator: Adobe Illustrator 24.0.0, SVG Export Plug-In . SVG Version: 6.00 Build 0)  -->
<svg version="1.1" id="Layer_1" xmlns="http://www.w3.org/2000/svg" xmlns:xlink="http://www.w3.org/1999/xlink" x="0px" y="0px"
	 viewBox="0 0 1200 320" style="enable-background:new 0 0 1200 320;" xml:space="preserve">
<style type="text/css">
	.st0{fill:#FFFFFF;}
	.st1{fill:#236FB6;}
	.st2{fill:#236FB6;stroke:#236FB6;stroke-width:3;stroke-miterlimit:10;}
	.st3{font-family:'BradleyHandITC';}
	.st4{font-size:186px;}
	.st5{fill:#FFFFFF;stroke:#FFFFFF;stroke-width:5;stroke-miterlimit:10;}
</style>
<g>
	<g>
		<g>
			<path class="st0" d="M124.5,122.4c0,6.4,0,12.3,0,18.7c-2.9,0.6-5.7,1-8.4,1.7c-18.4,5-31.2,16.3-36.4,34.9
				c-5.1,18.1-1.1,34.4,12.3,48.1c14.1,14.5,31.4,18.7,50.1,13c18-5.4,30-18.1,34-37.1c0.8-3.7,2.1-5.4,6-5.1
				c4.6,0.3,9.2,0.1,13.8,0.1c2,27.9-24.6,60.3-59.1,64.2c-44.1,5-77.7-27.9-79.1-66.5C56,150.4,94,120.9,124.5,122.4z"/>
		</g>
		<g>
			<path class="st0" d="M173.7,251.3c4.8-5.1,9.3-9.8,13.6-14.3c6,5.7,12.3,11.4,18.3,17.4c0.9,0.9,1.3,3.3,0.8,4.7
				c-3.2,10.7-12.9,13.2-20.5,5.3C181.6,260,177.5,255.5,173.7,251.3z"/>
		</g>
		<g>
			<path class="st1" d="M248.6,176.6c-22.7,0-41.2-18.5-41.2-41.2s18.5-41.2,41.2-41.2s41.2,18.5,41.2,41.2S271.3,176.6,248.6,176.6
				z M248.6,108.8c-14.7,0-26.6,11.9-26.6,26.6S234,162,248.6,162s26.6-11.9,26.6-26.6S263.3,108.8,248.6,108.8z"/>
		</g>
		<g>
			<path class="st1" d="M127.8,235.1c-23.8,0-43.2-19.4-43.2-43.2s19.4-43.2,43.2-43.2s43.2,19.4,43.2,43.2S151.7,235.1,127.8,235.1
				z M127.8,163.3c-15.8,0-28.6,12.8-28.6,28.6s12.8,28.6,28.6,28.6s28.6-12.8,28.6-28.6S143.6,163.3,127.8,163.3z"/>
		</g>
		<g>
			<path class="st1" d="M136.4,92.3c-4,0-8.2-0.7-12.1-2.3c-17.2-6.7-25.7-26.2-19-43.4l0,0c3.3-8.3,9.6-14.9,17.7-18.5
				s17.3-3.8,25.6-0.5c8.3,3.3,14.9,9.6,18.5,17.7s3.8,17.3,0.5,25.6C162.5,84.2,149.8,92.3,136.4,92.3z M118.8,51.9
				c-3.8,9.7,1,20.7,10.7,24.5c9.7,3.8,20.7-1,24.5-10.7c1.8-4.7,1.7-9.8-0.3-14.4s-5.7-8.2-10.4-10c-4.7-1.8-9.8-1.7-14.4,0.3
				C124.2,43.5,120.7,47.2,118.8,51.9L118.8,51.9z"/>
		</g>
		<g>
			<path class="st1" d="M50.3,127.3c-12.7,0-23.9-9.4-25.8-22.3l0,0c-2.1-14.2,7.9-27.5,22.1-29.5c14.2-2.1,27.5,7.8,29.5,22.1
				c2.1,14.2-7.8,27.5-22.1,29.5C52.7,127.2,51.5,127.3,50.3,127.3z M38.9,102.9c0.4,3,2,5.7,4.5,7.5c2.5,1.8,5.5,2.6,8.5,2.2
				c6.3-0.9,10.6-6.7,9.7-13c-0.9-6.3-6.7-10.6-13-9.7C42.4,90.8,38,96.6,38.9,102.9L38.9,102.9z"/>
		</g>
		<g>
			<rect x="62" y="69.1" transform="matrix(0.8655 -0.501 0.501 0.8655 -26.0259 55.8902)" class="st1" width="58" height="14.6"/>
		</g>
		<g>
			
				<rect x="103.6" y="113.7" transform="matrix(6.835618e-03 -1 1 6.835618e-03 15.2763 257.3767)" class="st1" width="67.2" height="14.6"/>
		</g>
		<g>
			
				<rect x="160.1" y="162" transform="matrix(0.8739 -0.4861 0.4861 0.8739 -57.9652 115.1348)" class="st1" width="65.6" height="14.6"/>
		</g>
		<g id="BLw9F5_00000047752697828340981960000000809492599993065395_">
			<g>
				<g>
					<path class="st1" d="M148.5,219.6c0,2.1,0,4.3,0,6.4c0,0.6-0.2,0.9-0.8,1.2c-4,1.9-8.2,2.7-12.6,3.2c-9.3,1-18.3-0.3-27.2-3.1
						c-0.7-0.2-0.9-0.5-0.9-1.3c0-3.8,0-7.6,0-11.4c0-8.5,5.8-15.2,14.3-15.8c4.5-0.4,9.2-0.3,13.7,0.1c6.6,0.6,12.3,6.2,13.1,12.8
						c0.3,2.6,0.2,5.2,0.4,7.8C148.5,219.6,148.5,219.6,148.5,219.6z"/>
				</g>
				<g>
					<path class="st1" d="M115.7,185.8c0-6.8,5.5-12.2,12.2-12.1c6.7,0,12.1,5.5,12.1,12.2c0,6.8-5.5,12.1-12.3,12.1
						C121,197.9,115.7,192.4,115.7,185.8z"/>
				</g>
			</g>
		</g>
		<g id="BLw9F5_00000073720581034179896800000009542661166492055726_">
			<g>
				<g>
					<path class="st1" d="M267.9,160.8c0,2,0,4,0,5.9c0,0.6-0.2,0.9-0.7,1.1c-3.7,1.7-7.6,2.5-11.6,2.9c-8.6,0.9-16.9-0.3-25.1-2.8
						c-0.6-0.2-0.8-0.5-0.8-1.2c0-3.5,0-7,0-10.6c0-7.8,5.4-14,13.2-14.6c4.2-0.3,8.5-0.3,12.7,0.1c6.1,0.5,11.3,5.7,12.1,11.9
						C268,156,267.9,158.4,267.9,160.8C267.9,160.8,267.9,160.8,267.9,160.8z"/>
				</g>
				<g>
					<path class="st1" d="M237.6,129.6c0-6.2,5-11.2,11.2-11.2c6.1,0,11.2,5.1,11.2,11.2c0,6.3-5.1,11.2-11.4,11.2
						C242.5,140.8,237.6,135.7,237.6,129.6z"/>
				</g>
			</g>
		</g>
		<g id="BLw9F5_00000066479550890690722010000009527934441352416934_">
			<g>
				<g>
					<path class="st1" d="M151.6,76.6c0.1,1.5,0.1,3,0.2,4.5c0,0.4-0.1,0.7-0.5,0.9c-2.8,1.4-5.8,2.1-8.8,2.6
						c-6.6,0.9-13,0.2-19.3-1.5c-0.5-0.1-0.7-0.4-0.7-0.9c-0.1-2.7-0.2-5.4-0.3-8.1c-0.2-6,3.8-10.9,9.7-11.6
						c3.2-0.4,6.5-0.4,9.7-0.3c4.7,0.2,8.8,4.1,9.6,8.8C151.6,72.9,151.6,74.8,151.6,76.6C151.7,76.6,151.7,76.6,151.6,76.6z"/>
				</g>
				<g>
					<path class="st1" d="M127.6,53.4c-0.2-4.8,3.6-8.7,8.3-8.9c4.7-0.1,8.7,3.6,8.9,8.3c0.2,4.8-3.6,8.7-8.4,8.9
						C131.7,61.9,127.7,58.1,127.6,53.4z"/>
				</g>
			</g>
		</g>
		<g id="BLw9F5_00000012445099384984436650000017675621459289664911_">
			<g>
				<g>
					<path class="st1" d="M58.5,110.3c0,0.8,0,1.6,0.1,2.4c0,0.2-0.1,0.4-0.3,0.5c-1.5,0.8-3.1,1.1-4.7,1.4c-3.5,0.5-7,0.1-10.4-0.8
						c-0.3-0.1-0.4-0.2-0.4-0.5c0-1.4-0.1-2.9-0.1-4.3c-0.1-3.2,2-5.8,5.2-6.2c1.7-0.2,3.5-0.2,5.2-0.1c2.5,0.1,4.7,2.2,5.1,4.7
						C58.5,108.3,58.5,109.3,58.5,110.3C58.6,110.3,58.5,110.3,58.5,110.3z"/>
				</g>
				<g>
					<path class="st1" d="M45.6,97.9c-0.1-2.6,1.9-4.7,4.5-4.8c2.5-0.1,4.7,1.9,4.8,4.5c0.1,2.6-1.9,4.7-4.5,4.8
						C47.8,102.4,45.7,100.4,45.6,97.9z"/>
				</g>
			</g>
		</g>
	</g>
</g>
<text transform="matrix(0.9684 0 0 1 289.8257 214.6849)"><tspan x="0" y="0" class="st2 st3 st4">DIGI </tspan><tspan x="395.9" y="0" class="st5 st3 st4">KYAR</tspan></text>
</svg>
